# Made in Blockbench 4.4.2
mtllib crystal.mtl

o bot
v 0 0 0
v 0 -1.5 -1.8369701987210297e-16
v 0.13397459621556132 6.123233995736765e-17 -0.49999999999999994
v 0.3660254037844386 4.482518391512303e-17 -0.36602540378443865
v 0.49999999999999994 1.6407156042244626e-17 -0.13397459621556132
v 0.49999999999999994 -1.6407156042244635e-17 0.13397459621556138
v 0.36602540378443865 -4.4825183915123025e-17 0.3660254037844386
v 0.1339745962155615 -6.123233995736765e-17 0.4999999999999999
v -0.13397459621556113 -6.123233995736766e-17 0.5
v -0.3660254037844386 -4.482518391512304e-17 0.3660254037844387
v -0.49999999999999994 -1.640715604224462e-17 0.13397459621556126
v -0.5 1.6407156042244598e-17 -0.1339745962155611
v -0.3660254037844387 4.482518391512302e-17 -0.36602540378443854
v -0.1339745962155613 6.123233995736765e-17 -0.49999999999999994
vt 0.88838125 0.43525625
vt 0.83036875 0.46875
vt 0.796875 0.34375
vt 0.13301995234766745 0.604715625
vt 0.19905240469533486 0.6159868446856875
vt 0.09952620234766743 1
vt 0.921875 0.37724375
vt 0.88838125 0.43525625
vt 0.796875 0.34375
vt 0.33219759530466514 0.30348684468568754
vt 0.39823004765233255 0.292215625
vt 0.4317237976523326 0.6875
vt 0.921875 0.31025625
vt 0.921875 0.37724375
vt 0.796875 0.34375
vt 0.39823004765233255 0.292215625
vt 0.4652175476523326 0.292215625
vt 0.4317237976523326 0.6875
vt 0.88838125 0.25224375
vt 0.921875 0.31025625
vt 0.796875 0.34375
vt 0.4652175476523326 0.292215625
vt 0.53125 0.30348684468568754
vt 0.4317237976523326 0.6875
vt 0.83036875 0.21875
vt 0.88838125 0.25224375
vt 0.796875 0.34375
vt 0.171875 0.47536184468568754
vt 0.23790745234766741 0.464090625
vt 0.2714012023476674 0.859375
vt 0.76338125 0.21875
vt 0.83036875 0.21875
vt 0.796875 0.34375
vt 0.23790745234766741 0.464090625
vt 0.30489495234766745 0.464090625
vt 0.2714012023476674 0.859375
vt 0.70536875 0.25224375
vt 0.76338125 0.21875
vt 0.796875 0.34375
vt 0.30489495234766745 0.464090625
vt 0.37092740469533486 0.47536184468568754
vt 0.2714012023476674 0.859375
vt 0.671875 0.31025625
vt 0.70536875 0.25224375
vt 0.796875 0.34375
vt 0.004072595304665139 0.20973684468568754
vt 0.07010504765233257 0.19846562499999998
vt 0.10359879765233257 0.59375
vt 0.671875 0.37724375
vt 0.671875 0.31025625
vt 0.796875 0.34375
vt 0.07010504765233257 0.19846562499999998
vt 0.13709254765233259 0.19846562499999998
vt 0.10359879765233257 0.59375
vt 0.70536875 0.43525625
vt 0.671875 0.37724375
vt 0.796875 0.34375
vt 0.13709254765233259 0.19846562499999998
vt 0.203125 0.20973684468568754
vt 0.10359879765233257 0.59375
vt 0.76338125 0.46875
vt 0.70536875 0.43525625
vt 0.796875 0.34375
vt 0 0.6159868446856875
vt 0.06603245234766743 0.604715625
vt 0.09952620234766743 1
vt 0.83036875 0.46875
vt 0.76338125 0.46875
vt 0.796875 0.34375
vt 0.06603245234766743 0.604715625
vt 0.13301995234766745 0.604715625
vt 0.09952620234766743 1
vn 0 1 1.2246467991473532e-16
vn 0.47434164902525683 -0.31622776601683783 -0.8215838362577493
vn 0 1 1.2246467991473532e-16
vn 0.8215838362577492 -0.31622776601683783 -0.4743416490252569
vn 0 1 1.2246467991473532e-16
vn 0.948683298050514 -0.3162277660168379 -3.872673214540387e-17
vn 0 1 1.2246467991473532e-16
vn 0.8215838362577493 -0.316227766016838 0.4743416490252569
vn 0 1 1.2246467991473532e-16
vn 0.47434164902525694 -0.31622776601683805 0.8215838362577491
vn 0 1 1.2246467991473532e-16
vn 3.9307826644924574e-16 -0.31622776601683805 0.9486832980505138
vn 0 1 1.2246467991473532e-16
vn -0.47434164902525644 -0.316227766016838 0.8215838362577494
vn 0 1 1.2246467991473532e-16
vn -0.8215838362577493 -0.31622776601683794 0.4743416490252566
vn 0 1 1.2246467991473532e-16
vn -0.9486832980505139 -0.3162277660168379 1.578124010792192e-16
vn 0 1 1.2246467991473532e-16
vn -0.8215838362577496 -0.31622776601683783 -0.4743416490252566
vn 0 1 1.2246467991473532e-16
vn -0.47434164902525694 -0.31622776601683783 -0.8215838362577494
vn 0 1 1.2246467991473532e-16
vn 0 -0.3162277660168378 -0.948683298050514
usemtl m_0
f 4/1/1 3/2/1 1/3/1
f 3/4/2 4/5/2 2/6/2
f 5/7/3 4/8/3 1/9/3
f 4/10/4 5/11/4 2/12/4
f 6/13/5 5/14/5 1/15/5
f 5/16/6 6/17/6 2/18/6
f 7/19/7 6/20/7 1/21/7
f 6/22/8 7/23/8 2/24/8
f 8/25/9 7/26/9 1/27/9
f 7/28/10 8/29/10 2/30/10
f 9/31/11 8/32/11 1/33/11
f 8/34/12 9/35/12 2/36/12
f 10/37/13 9/38/13 1/39/13
f 9/40/14 10/41/14 2/42/14
f 11/43/15 10/44/15 1/45/15
f 10/46/16 11/47/16 2/48/16
f 12/49/17 11/50/17 1/51/17
f 11/52/18 12/53/18 2/54/18
f 13/55/19 12/56/19 1/57/19
f 12/58/20 13/59/20 2/60/20
f 14/61/21 13/62/21 1/63/21
f 13/64/22 14/65/22 2/66/22
f 3/67/23 14/68/23 1/69/23
f 14/70/24 3/71/24 2/72/24
o top
v 0 0 0
v 0 1.5 0
v 0.13397459621556132 0 0.49999999999999994
v 0.3660254037844386 0 0.36602540378443865
v 0.49999999999999994 0 0.13397459621556132
v 0.49999999999999994 0 -0.13397459621556138
v 0.36602540378443865 0 -0.3660254037844386
v 0.1339745962155615 0 -0.4999999999999999
v -0.13397459621556113 0 -0.5
v -0.3660254037844386 0 -0.3660254037844387
v -0.49999999999999994 0 -0.13397459621556126
v -0.5 0 0.1339745962155611
v -0.3660254037844387 0 0.36602540378443854
v -0.1339745962155613 0 0.49999999999999994
vt 0.96650625 0.96650625
vt 0.90849375 1
vt 0.875 0.875
vt 0.5861449523476674 0.604715625
vt 0.6521774046953348 0.6159868446856875
vt 0.5526512023476674 1
vt 1 0.90849375
vt 0.96650625 0.96650625
vt 0.875 0.875
vt 0.17594759530466514 0.06911184468568754
vt 0.24198004765233255 0.05784062499999998
vt 0.2754737976523326 0.453125
vt 1 0.84150625
vt 1 0.90849375
vt 0.875 0.875
vt 0.24198004765233255 0.05784062499999998
vt 0.3089675476523326 0.05784062499999998
vt 0.2754737976523326 0.453125
vt 0.96650625 0.78349375
vt 1 0.84150625
vt 0.875 0.875
vt 0.3089675476523326 0.05784062499999998
vt 0.375 0.06911184468568754
vt 0.2754737976523326 0.453125
vt 0.90849375 0.75
vt 0.96650625 0.78349375
vt 0.875 0.875
vt 0.5 0.16286184468568754
vt 0.5660324523476674 0.15159062499999998
vt 0.5995262023476674 0.546875
vt 0.84150625 0.75
vt 0.90849375 0.75
vt 0.875 0.875
vt 0.5660324523476674 0.15159062499999998
vt 0.6330199523476674 0.15159062499999998
vt 0.5995262023476674 0.546875
vt 0.78349375 0.78349375
vt 0.84150625 0.75
vt 0.875 0.875
vt 0.6330199523476674 0.15159062499999998
vt 0.6990524046953348 0.16286184468568754
vt 0.5995262023476674 0.546875
vt 0.75 0.84150625
vt 0.78349375 0.78349375
vt 0.875 0.875
vt 0.6290725953046652 0.49098684468568754
vt 0.6951050476523326 0.479715625
vt 0.7285987976523326 0.875
vt 0.75 0.90849375
vt 0.75 0.84150625
vt 0.875 0.875
vt 0.6951050476523326 0.479715625
vt 0.7620925476523326 0.479715625
vt 0.7285987976523326 0.875
vt 0.78349375 0.96650625
vt 0.75 0.90849375
vt 0.875 0.875
vt 0.7620925476523326 0.479715625
vt 0.828125 0.49098684468568754
vt 0.7285987976523326 0.875
vt 0.84150625 1
vt 0.78349375 0.96650625
vt 0.875 0.875
vt 0.453125 0.6159868446856875
vt 0.5191574523476674 0.604715625
vt 0.5526512023476674 1
vt 0.90849375 1
vt 0.84150625 1
vt 0.875 0.875
vt 0.5191574523476674 0.604715625
vt 0.5861449523476674 0.604715625
vt 0.5526512023476674 1
vn 0 -1 0
vn 0.47434164902525683 0.31622776601683794 0.8215838362577493
vn 0 -1 0
vn 0.8215838362577492 0.3162277660168379 0.47434164902525683
vn 0 -1 0
vn 0.948683298050514 0.3162277660168379 0
vn 0 -1 0
vn 0.8215838362577493 0.31622776601683794 -0.47434164902525694
vn 0 -1 0
vn 0.47434164902525694 0.31622776601683794 -0.8215838362577491
vn 0 -1 0
vn 3.9307826644924584e-16 0.316227766016838 -0.948683298050514
vn 0 -1 0
vn -0.47434164902525644 0.3162277660168379 -0.8215838362577494
vn 0 -1 0
vn -0.8215838362577493 0.3162277660168379 -0.47434164902525666
vn 0 -1 0
vn -0.9486832980505139 0.3162277660168379 -1.9653913322462307e-16
vn 0 -1 0
vn -0.8215838362577496 0.3162277660168379 0.47434164902525655
vn 0 -1 0
vn -0.47434164902525683 0.3162277660168379 0.8215838362577492
vn 0 -1 0
vn 0 0.3162277660168379 0.948683298050514
usemtl m_0
f 18/73/25 17/74/25 15/75/25
f 17/76/26 18/77/26 16/78/26
f 19/79/27 18/80/27 15/81/27
f 18/82/28 19/83/28 16/84/28
f 20/85/29 19/86/29 15/87/29
f 19/88/30 20/89/30 16/90/30
f 21/91/31 20/92/31 15/93/31
f 20/94/32 21/95/32 16/96/32
f 22/97/33 21/98/33 15/99/33
f 21/100/34 22/101/34 16/102/34
f 23/103/35 22/104/35 15/105/35
f 22/106/36 23/107/36 16/108/36
f 24/109/37 23/110/37 15/111/37
f 23/112/38 24/113/38 16/114/38
f 25/115/39 24/116/39 15/117/39
f 24/118/40 25/119/40 16/120/40
f 26/121/41 25/122/41 15/123/41
f 25/124/42 26/125/42 16/126/42
f 27/127/43 26/128/43 15/129/43
f 26/130/44 27/131/44 16/132/44
f 28/133/45 27/134/45 15/135/45
f 27/136/46 28/137/46 16/138/46
f 17/139/47 28/140/47 15/141/47
f 28/142/48 17/143/48 16/144/48